<svg width="1134" height="720" xmlns="http://www.w3.org/2000/svg" xmlns:xlink="http://www.w3.org/1999/xlink" overflow="hidden"><defs><filter id="fx0" x="-10%" y="-10%" width="120%" height="120%" filterUnits="userSpaceOnUse" primitiveUnits="userSpaceOnUse"><feComponentTransfer color-interpolation-filters="sRGB"><feFuncR type="discrete" tableValues="0 0"/><feFuncG type="discrete" tableValues="0 0"/><feFuncB type="discrete" tableValues="0 0"/><feFuncA type="linear" slope="0.4" intercept="0"/></feComponentTransfer><feGaussianBlur stdDeviation="1.77804 1.77778"/></filter><filter id="fx1" x="-10%" y="-10%" width="120%" height="120%" filterUnits="userSpaceOnUse" primitiveUnits="userSpaceOnUse"><feComponentTransfer color-interpolation-filters="sRGB"><feFuncR type="discrete" tableValues="0 0"/><feFuncG type="discrete" tableValues="0 0"/><feFuncB type="discrete" tableValues="0 0"/><feFuncA type="linear" slope="0.4" intercept="0"/></feComponentTransfer><feGaussianBlur stdDeviation="1.77804 1.77778"/></filter><filter id="fx2" x="-10%" y="-10%" width="120%" height="120%" filterUnits="userSpaceOnUse" primitiveUnits="userSpaceOnUse"><feComponentTransfer color-interpolation-filters="sRGB"><feFuncR type="discrete" tableValues="0 0"/><feFuncG type="discrete" tableValues="0 0"/><feFuncB type="discrete" tableValues="0 0"/><feFuncA type="linear" slope="0.4" intercept="0"/></feComponentTransfer><feGaussianBlur stdDeviation="1.77804 1.77778"/></filter><filter id="fx3" x="-10%" y="-10%" width="120%" height="120%" filterUnits="userSpaceOnUse" primitiveUnits="userSpaceOnUse"><feComponentTransfer color-interpolation-filters="sRGB"><feFuncR type="discrete" tableValues="0 0"/><feFuncG type="discrete" tableValues="0 0"/><feFuncB type="discrete" tableValues="0 0"/><feFuncA type="linear" slope="0.4" intercept="0"/></feComponentTransfer><feGaussianBlur stdDeviation="1.77804 1.77778"/></filter><filter id="fx4" x="-10%" y="-10%" width="120%" height="120%" filterUnits="userSpaceOnUse" primitiveUnits="userSpaceOnUse"><feComponentTransfer color-interpolation-filters="sRGB"><feFuncR type="discrete" tableValues="0 0"/><feFuncG type="discrete" tableValues="0 0"/><feFuncB type="discrete" tableValues="0 0"/><feFuncA type="linear" slope="0.4" intercept="0"/></feComponentTransfer><feGaussianBlur stdDeviation="1.77804 1.77778"/></filter><filter id="fx5" x="-10%" y="-10%" width="120%" height="120%" filterUnits="userSpaceOnUse" primitiveUnits="userSpaceOnUse"><feComponentTransfer color-interpolation-filters="sRGB"><feFuncR type="discrete" tableValues="0 0"/><feFuncG type="discrete" tableValues="0 0"/><feFuncB type="discrete" tableValues="0 0"/><feFuncA type="linear" slope="0.4" intercept="0"/></feComponentTransfer><feGaussianBlur stdDeviation="1.77804 1.77778"/></filter><filter id="fx6" x="-10%" y="-10%" width="120%" height="120%" filterUnits="userSpaceOnUse" primitiveUnits="userSpaceOnUse"><feComponentTransfer color-interpolation-filters="sRGB"><feFuncR type="discrete" tableValues="0 0"/><feFuncG type="discrete" tableValues="0 0"/><feFuncB type="discrete" tableValues="0 0"/><feFuncA type="linear" slope="0.4" intercept="0"/></feComponentTransfer><feGaussianBlur stdDeviation="1.77804 1.77778"/></filter><filter id="fx7" x="-10%" y="-10%" width="120%" height="120%" filterUnits="userSpaceOnUse" primitiveUnits="userSpaceOnUse"><feComponentTransfer color-interpolation-filters="sRGB"><feFuncR type="discrete" tableValues="0 0"/><feFuncG type="discrete" tableValues="0 0"/><feFuncB type="discrete" tableValues="0 0"/><feFuncA type="linear" slope="0.4" intercept="0"/></feComponentTransfer><feGaussianBlur stdDeviation="1.77804 1.77778"/></filter><filter id="fx8" x="-10%" y="-10%" width="120%" height="120%" filterUnits="userSpaceOnUse" primitiveUnits="userSpaceOnUse"><feComponentTransfer color-interpolation-filters="sRGB"><feFuncR type="discrete" tableValues="0 0"/><feFuncG type="discrete" tableValues="0 0"/><feFuncB type="discrete" tableValues="0 0"/><feFuncA type="linear" slope="0.4" intercept="0"/></feComponentTransfer><feGaussianBlur stdDeviation="1.77804 1.77778"/></filter><filter id="fx9" x="-10%" y="-10%" width="120%" height="120%" filterUnits="userSpaceOnUse" primitiveUnits="userSpaceOnUse"><feComponentTransfer color-interpolation-filters="sRGB"><feFuncR type="discrete" tableValues="0 0"/><feFuncG type="discrete" tableValues="0 0"/><feFuncB type="discrete" tableValues="0 0"/><feFuncA type="linear" slope="0.4" intercept="0"/></feComponentTransfer><feGaussianBlur stdDeviation="1.77804 1.77778"/></filter><filter id="fx10" x="-10%" y="-10%" width="120%" height="120%" filterUnits="userSpaceOnUse" primitiveUnits="userSpaceOnUse"><feComponentTransfer color-interpolation-filters="sRGB"><feFuncR type="discrete" tableValues="0 0"/><feFuncG type="discrete" tableValues="0 0"/><feFuncB type="discrete" tableValues="0 0"/><feFuncA type="linear" slope="0.4" intercept="0"/></feComponentTransfer><feGaussianBlur stdDeviation="1.77804 1.77778"/></filter><filter id="fx11" x="-10%" y="-10%" width="120%" height="120%" filterUnits="userSpaceOnUse" primitiveUnits="userSpaceOnUse"><feComponentTransfer color-interpolation-filters="sRGB"><feFuncR type="discrete" tableValues="0 0"/><feFuncG type="discrete" tableValues="0 0"/><feFuncB type="discrete" tableValues="0 0"/><feFuncA type="linear" slope="0.4" intercept="0"/></feComponentTransfer><feGaussianBlur stdDeviation="1.77804 1.77778"/></filter><filter id="fx12" x="-10%" y="-10%" width="120%" height="120%" filterUnits="userSpaceOnUse" primitiveUnits="userSpaceOnUse"><feComponentTransfer color-interpolation-filters="sRGB"><feFuncR type="discrete" tableValues="0 0"/><feFuncG type="discrete" tableValues="0 0"/><feFuncB type="discrete" tableValues="0 0"/><feFuncA type="linear" slope="0.4" intercept="0"/></feComponentTransfer><feGaussianBlur stdDeviation="1.77804 1.77778"/></filter><filter id="fx13" x="-10%" y="-10%" width="120%" height="120%" filterUnits="userSpaceOnUse" primitiveUnits="userSpaceOnUse"><feComponentTransfer color-interpolation-filters="sRGB"><feFuncR type="discrete" tableValues="0 0"/><feFuncG type="discrete" tableValues="0 0"/><feFuncB type="discrete" tableValues="0 0"/><feFuncA type="linear" slope="0.4" intercept="0"/></feComponentTransfer><feGaussianBlur stdDeviation="1.77804 1.77778"/></filter><filter id="fx14" x="-10%" y="-10%" width="120%" height="120%" filterUnits="userSpaceOnUse" primitiveUnits="userSpaceOnUse"><feComponentTransfer color-interpolation-filters="sRGB"><feFuncR type="discrete" tableValues="0 0"/><feFuncG type="discrete" tableValues="0 0"/><feFuncB type="discrete" tableValues="0 0"/><feFuncA type="linear" slope="0.4" intercept="0"/></feComponentTransfer><feGaussianBlur stdDeviation="1.77804 1.77778"/></filter><filter id="fx15" x="-10%" y="-10%" width="120%" height="120%" filterUnits="userSpaceOnUse" primitiveUnits="userSpaceOnUse"><feComponentTransfer color-interpolation-filters="sRGB"><feFuncR type="discrete" tableValues="0 0"/><feFuncG type="discrete" tableValues="0 0"/><feFuncB type="discrete" tableValues="0 0"/><feFuncA type="linear" slope="0.4" intercept="0"/></feComponentTransfer><feGaussianBlur stdDeviation="1.77804 1.77778"/></filter><filter id="fx16" x="-10%" y="-10%" width="120%" height="120%" filterUnits="userSpaceOnUse" primitiveUnits="userSpaceOnUse"><feComponentTransfer color-interpolation-filters="sRGB"><feFuncR type="discrete" tableValues="0 0"/><feFuncG type="discrete" tableValues="0 0"/><feFuncB type="discrete" tableValues="0 0"/><feFuncA type="linear" slope="0.4" intercept="0"/></feComponentTransfer><feGaussianBlur stdDeviation="1.77804 1.77778"/></filter><filter id="fx17" x="-10%" y="-10%" width="120%" height="120%" filterUnits="userSpaceOnUse" primitiveUnits="userSpaceOnUse"><feComponentTransfer color-interpolation-filters="sRGB"><feFuncR type="discrete" tableValues="0 0"/><feFuncG type="discrete" tableValues="0 0"/><feFuncB type="discrete" tableValues="0 0"/><feFuncA type="linear" slope="0.4" intercept="0"/></feComponentTransfer><feGaussianBlur stdDeviation="1.77804 1.77778"/></filter><filter id="fx18" x="-10%" y="-10%" width="120%" height="120%" filterUnits="userSpaceOnUse" primitiveUnits="userSpaceOnUse"><feComponentTransfer color-interpolation-filters="sRGB"><feFuncR type="discrete" tableValues="0 0"/><feFuncG type="discrete" tableValues="0 0"/><feFuncB type="discrete" tableValues="0 0"/><feFuncA type="linear" slope="0.4" intercept="0"/></feComponentTransfer><feGaussianBlur stdDeviation="1.77804 1.77778"/></filter><filter id="fx19" x="-10%" y="-10%" width="120%" height="120%" filterUnits="userSpaceOnUse" primitiveUnits="userSpaceOnUse"><feComponentTransfer color-interpolation-filters="sRGB"><feFuncR type="discrete" tableValues="0 0"/><feFuncG type="discrete" tableValues="0 0"/><feFuncB type="discrete" tableValues="0 0"/><feFuncA type="linear" slope="0.4" intercept="0"/></feComponentTransfer><feGaussianBlur stdDeviation="1.77804 1.77778"/></filter><filter id="fx20" x="-10%" y="-10%" width="120%" height="120%" filterUnits="userSpaceOnUse" primitiveUnits="userSpaceOnUse"><feComponentTransfer color-interpolation-filters="sRGB"><feFuncR type="discrete" tableValues="0 0"/><feFuncG type="discrete" tableValues="0 0"/><feFuncB type="discrete" tableValues="0 0"/><feFuncA type="linear" slope="0.4" intercept="0"/></feComponentTransfer><feGaussianBlur stdDeviation="1.77804 1.77778"/></filter><filter id="fx21" x="-10%" y="-10%" width="120%" height="120%" filterUnits="userSpaceOnUse" primitiveUnits="userSpaceOnUse"><feComponentTransfer color-interpolation-filters="sRGB"><feFuncR type="discrete" tableValues="0 0"/><feFuncG type="discrete" tableValues="0 0"/><feFuncB type="discrete" tableValues="0 0"/><feFuncA type="linear" slope="0.4" intercept="0"/></feComponentTransfer><feGaussianBlur stdDeviation="1.77804 1.77778"/></filter><filter id="fx22" x="-10%" y="-10%" width="120%" height="120%" filterUnits="userSpaceOnUse" primitiveUnits="userSpaceOnUse"><feComponentTransfer color-interpolation-filters="sRGB"><feFuncR type="discrete" tableValues="0 0"/><feFuncG type="discrete" tableValues="0 0"/><feFuncB type="discrete" tableValues="0 0"/><feFuncA type="linear" slope="0.4" intercept="0"/></feComponentTransfer><feGaussianBlur stdDeviation="1.77804 1.77778"/></filter><filter id="fx23" x="-10%" y="-10%" width="120%" height="120%" filterUnits="userSpaceOnUse" primitiveUnits="userSpaceOnUse"><feComponentTransfer color-interpolation-filters="sRGB"><feFuncR type="discrete" tableValues="0 0"/><feFuncG type="discrete" tableValues="0 0"/><feFuncB type="discrete" tableValues="0 0"/><feFuncA type="linear" slope="0.4" intercept="0"/></feComponentTransfer><feGaussianBlur stdDeviation="1.77804 1.77778"/></filter><filter id="fx24" x="-10%" y="-10%" width="120%" height="120%" filterUnits="userSpaceOnUse" primitiveUnits="userSpaceOnUse"><feComponentTransfer color-interpolation-filters="sRGB"><feFuncR type="discrete" tableValues="0 0"/><feFuncG type="discrete" tableValues="0 0"/><feFuncB type="discrete" tableValues="0 0"/><feFuncA type="linear" slope="0.4" intercept="0"/></feComponentTransfer><feGaussianBlur stdDeviation="1.77804 1.77778"/></filter><filter id="fx25" x="-10%" y="-10%" width="120%" height="120%" filterUnits="userSpaceOnUse" primitiveUnits="userSpaceOnUse"><feComponentTransfer color-interpolation-filters="sRGB"><feFuncR type="discrete" tableValues="0 0"/><feFuncG type="discrete" tableValues="0 0"/><feFuncB type="discrete" tableValues="0 0"/><feFuncA type="linear" slope="0.4" intercept="0"/></feComponentTransfer><feGaussianBlur stdDeviation="1.77804 1.77778"/></filter><filter id="fx26" x="-10%" y="-10%" width="120%" height="120%" filterUnits="userSpaceOnUse" primitiveUnits="userSpaceOnUse"><feComponentTransfer color-interpolation-filters="sRGB"><feFuncR type="discrete" tableValues="0 0"/><feFuncG type="discrete" tableValues="0 0"/><feFuncB type="discrete" tableValues="0 0"/><feFuncA type="linear" slope="0.4" intercept="0"/></feComponentTransfer><feGaussianBlur stdDeviation="1.98556 1.98526"/></filter><filter id="fx27" x="-10%" y="-10%" width="120%" height="120%" filterUnits="userSpaceOnUse" primitiveUnits="userSpaceOnUse"><feComponentTransfer color-interpolation-filters="sRGB"><feFuncR type="discrete" tableValues="0 0"/><feFuncG type="discrete" tableValues="0 0"/><feFuncB type="discrete" tableValues="0 0"/><feFuncA type="linear" slope="0.4" intercept="0"/></feComponentTransfer><feGaussianBlur stdDeviation="1.77804 1.77778"/></filter><filter id="fx28" x="-10%" y="-10%" width="120%" height="120%" filterUnits="userSpaceOnUse" primitiveUnits="userSpaceOnUse"><feComponentTransfer color-interpolation-filters="sRGB"><feFuncR type="discrete" tableValues="0 0"/><feFuncG type="discrete" tableValues="0 0"/><feFuncB type="discrete" tableValues="0 0"/><feFuncA type="linear" slope="0.4" intercept="0"/></feComponentTransfer><feGaussianBlur stdDeviation="1.98556 1.98526"/></filter><clipPath id="clip29"><rect x="0" y="0" width="1134" height="720"/></clipPath><clipPath id="clip30"><rect x="-2" y="-2" width="29" height="67"/></clipPath><clipPath id="clip31"><rect x="0" y="0" width="27" height="70"/></clipPath><clipPath id="clip32"><path d="M66.5 45.9933C42.4757 45.9933 23 65.466 23 89.4869 23 113.508 42.4757 132.98 66.5 132.98 90.5244 132.98 110 113.508 110 89.4869 110 65.466 90.5244 45.9933 66.5 45.9933ZM1.68979e-05 1.07288e-05 1134 1.07288e-05 1134 720 1.68979e-05 720Z" fill-rule="evenodd" clip-rule="evenodd"/></clipPath><clipPath id="clip33"><rect x="-2" y="-2" width="116" height="116"/></clipPath><clipPath id="clip34"><rect x="0" y="0" width="113" height="113"/></clipPath><clipPath id="clip35"><path d="M66.5 221.967C42.4757 221.967 23 241.44 23 265.461 23 289.482 42.4757 308.955 66.5 308.955 90.5244 308.955 110 289.482 110 265.461 110 241.44 90.5244 221.967 66.5 221.967ZM1.68979e-05 1.07288e-05 1134 1.07288e-05 1134 720 1.68979e-05 720Z" fill-rule="evenodd" clip-rule="evenodd"/></clipPath><clipPath id="clip36"><rect x="-2" y="-2" width="116" height="116"/></clipPath><clipPath id="clip37"><rect x="0" y="0" width="113" height="113"/></clipPath><clipPath id="clip38"><rect x="-2" y="-2" width="29" height="67"/></clipPath><clipPath id="clip39"><rect x="0" y="0" width="27" height="70"/></clipPath><clipPath id="clip40"><path d="M66.5 396.942C42.4757 396.942 23 416.414 23 440.435 23 464.456 42.4757 483.929 66.5 483.929 90.5244 483.929 110 464.456 110 440.435 110 416.414 90.5244 396.942 66.5 396.942ZM1.68979e-05 1.07288e-05 1134 1.07288e-05 1134 720 1.68979e-05 720Z" fill-rule="evenodd" clip-rule="evenodd"/></clipPath><clipPath id="clip41"><rect x="-2" y="-2" width="116" height="116"/></clipPath><clipPath id="clip42"><rect x="0" y="0" width="113" height="113"/></clipPath><clipPath id="clip43"><path d="M393.5 45.9933C369.476 45.9933 350 65.466 350 89.4869 350 113.508 369.476 132.98 393.5 132.98 417.524 132.98 437 113.508 437 89.4869 437 65.466 417.524 45.9933 393.5 45.9933ZM1.68979e-05 1.07288e-05 1134 1.07288e-05 1134 720 1.68979e-05 720Z" fill-rule="evenodd" clip-rule="evenodd"/></clipPath><clipPath id="clip44"><rect x="-2" y="-2" width="116" height="116"/></clipPath><clipPath id="clip45"><rect x="0" y="0" width="113" height="113"/></clipPath><clipPath id="clip46"><rect x="-2" y="-2" width="67" height="79"/></clipPath><clipPath id="clip47"><rect x="0" y="0" width="63" height="79"/></clipPath><clipPath id="clip48"><path d="M309.5 221.967C285.476 221.967 266 241.44 266 265.461 266 289.482 285.476 308.955 309.5 308.955 333.524 308.955 353 289.482 353 265.461 353 241.44 333.524 221.967 309.5 221.967ZM1.68979e-05 1.07288e-05 1134 1.07288e-05 1134 720 1.68979e-05 720Z" fill-rule="evenodd" clip-rule="evenodd"/></clipPath><clipPath id="clip49"><rect x="-2" y="-2" width="116" height="116"/></clipPath><clipPath id="clip50"><rect x="0" y="0" width="113" height="113"/></clipPath><clipPath id="clip51"><rect x="-2" y="-2" width="67" height="79"/></clipPath><clipPath id="clip52"><rect x="0" y="0" width="64" height="79"/></clipPath><clipPath id="clip53"><path d="M490.5 221.967C466.476 221.967 447 241.44 447 265.461 447 289.482 466.476 308.955 490.5 308.955 514.524 308.955 534 289.482 534 265.461 534 241.44 514.524 221.967 490.5 221.967ZM1.68979e-05 1.07288e-05 1134 1.07288e-05 1134 720 1.68979e-05 720Z" fill-rule="evenodd" clip-rule="evenodd"/></clipPath><clipPath id="clip54"><rect x="-2" y="-2" width="116" height="116"/></clipPath><clipPath id="clip55"><rect x="0" y="0" width="113" height="113"/></clipPath><clipPath id="clip56"><rect x="-2" y="-2" width="67" height="79"/></clipPath><clipPath id="clip57"><rect x="0" y="0" width="63" height="79"/></clipPath><clipPath id="clip58"><path d="M412.5 400.941C388.476 400.941 369 420.414 369 444.435 369 468.456 388.476 487.928 412.5 487.928 436.524 487.928 456 468.456 456 444.435 456 420.414 436.524 400.941 412.5 400.941ZM1.68979e-05 1.07288e-05 1134 1.07288e-05 1134 720 1.68979e-05 720Z" fill-rule="evenodd" clip-rule="evenodd"/></clipPath><clipPath id="clip59"><rect x="-2" y="-2" width="116" height="116"/></clipPath><clipPath id="clip60"><rect x="0" y="0" width="113" height="113"/></clipPath><clipPath id="clip61"><path d="M572 400.941C547.699 400.941 528 420.414 528 444.435 528 468.456 547.699 487.928 572 487.928 596.301 487.928 616 468.456 616 444.435 616 420.414 596.301 400.941 572 400.941ZM1.68979e-05 1.07288e-05 1134 1.07288e-05 1134 720 1.68979e-05 720Z" fill-rule="evenodd" clip-rule="evenodd"/></clipPath><clipPath id="clip62"><rect x="-2" y="-2" width="116" height="116"/></clipPath><clipPath id="clip63"><rect x="0" y="0" width="114" height="113"/></clipPath><clipPath id="clip64"><rect x="-2" y="-2" width="67" height="79"/></clipPath><clipPath id="clip65"><rect x="0" y="0" width="64" height="79"/></clipPath><clipPath id="clip66"><rect x="-2" y="-2" width="29" height="48"/></clipPath><clipPath id="clip67"><rect x="0" y="0" width="27" height="52"/></clipPath><clipPath id="clip68"><path d="M959.5 45.9933C935.476 45.9933 916 65.466 916 89.4869 916 113.508 935.476 132.98 959.5 132.98 983.524 132.98 1003 113.508 1003 89.4869 1003 65.466 983.524 45.9933 959.5 45.9933ZM1.68979e-05 1.07288e-05 1134 1.07288e-05 1134 720 1.68979e-05 720Z" fill-rule="evenodd" clip-rule="evenodd"/></clipPath><clipPath id="clip69"><rect x="-2" y="-2" width="116" height="116"/></clipPath><clipPath id="clip70"><rect x="0" y="0" width="113" height="113"/></clipPath><clipPath id="clip71"><rect x="1" y="-2" width="64" height="56"/></clipPath><clipPath id="clip72"><rect x="0" y="0" width="63" height="54"/></clipPath><clipPath id="clip73"><path d="M815.5 131.981C791.476 131.981 772 151.677 772 175.974 772 200.271 791.476 219.968 815.5 219.968 839.524 219.968 859 200.271 859 175.974 859 151.677 839.524 131.981 815.5 131.981ZM1.68979e-05 1.07288e-05 1134 1.07288e-05 1134 720 1.68979e-05 720Z" fill-rule="evenodd" clip-rule="evenodd"/></clipPath><clipPath id="clip74"><rect x="-2" y="-2" width="116" height="116"/></clipPath><clipPath id="clip75"><rect x="0" y="0" width="113" height="114"/></clipPath><clipPath id="clip76"><rect x="-2" y="-2" width="67" height="79"/></clipPath><clipPath id="clip77"><rect x="0" y="0" width="64" height="79"/></clipPath><clipPath id="clip78"><path d="M1056.5 221.967C1032.48 221.967 1013 241.44 1013 265.461 1013 289.482 1032.48 308.955 1056.5 308.955 1080.52 308.955 1100 289.482 1100 265.461 1100 241.44 1080.52 221.967 1056.5 221.967ZM1.68979e-05 1.07288e-05 1134 1.07288e-05 1134 720 1.68979e-05 720Z" fill-rule="evenodd" clip-rule="evenodd"/></clipPath><clipPath id="clip79"><rect x="-2" y="-2" width="116" height="116"/></clipPath><clipPath id="clip80"><rect x="0" y="0" width="113" height="113"/></clipPath><clipPath id="clip81"><rect x="-2" y="-2" width="67" height="79"/></clipPath><clipPath id="clip82"><rect x="0" y="0" width="63" height="79"/></clipPath><clipPath id="clip83"><path d="M970.5 400.941C946.476 400.941 927 420.414 927 444.435 927 468.456 946.476 487.928 970.5 487.928 994.524 487.928 1014 468.456 1014 444.435 1014 420.414 994.524 400.941 970.5 400.941ZM1.68979e-05 1.07288e-05 1134 1.07288e-05 1134 720 1.68979e-05 720Z" fill-rule="evenodd" clip-rule="evenodd"/></clipPath><clipPath id="clip84"><rect x="-2" y="-2" width="116" height="116"/></clipPath><clipPath id="clip85"><rect x="0" y="0" width="113" height="113"/></clipPath><clipPath id="clip86"><rect x="-2" y="-2" width="137" height="93"/></clipPath><clipPath id="clip87"><rect x="0" y="0" width="137" height="90"/></clipPath><clipPath id="clip88"><path d="M836.5 276.959C812.476 276.959 793 296.432 793 320.453 793 344.474 812.476 363.946 836.5 363.946 860.524 363.946 880 344.474 880 320.453 880 296.432 860.524 276.959 836.5 276.959ZM1.68979e-05 1.07288e-05 1134 1.07288e-05 1134 720 1.68979e-05 720Z" fill-rule="evenodd" clip-rule="evenodd"/></clipPath><clipPath id="clip89"><rect x="-2" y="-2" width="116" height="116"/></clipPath><clipPath id="clip90"><rect x="0" y="0" width="113" height="113"/></clipPath><clipPath id="clip91"><rect x="-2" y="-2" width="77" height="71"/></clipPath><clipPath id="clip92"><rect x="0" y="0" width="76" height="68"/></clipPath><clipPath id="clip93"><rect x="3" y="-2" width="109" height="50"/></clipPath><clipPath id="clip94"><rect x="0" y="0" width="110" height="48"/></clipPath><clipPath id="clip95"><rect x="-2" y="60" width="1157" height="120"/></clipPath><clipPath id="clip96"><rect x="0" y="0" width="1146" height="256"/></clipPath><clipPath id="clip97"><rect x="13" y="62" width="1140" height="105"/></clipPath><clipPath id="clip98"><rect x="0" y="0" width="1158" height="256"/></clipPath><clipPath id="clip99"><rect x="5" y="62" width="1142" height="105"/></clipPath><clipPath id="clip100"><rect x="0" y="0" width="1146" height="253"/></clipPath></defs><g clip-path="url(#clip29)"><rect x="0" y="0" width="1134" height="719.894" fill="#FFFFFF"/><g clip-path="url(#clip30)" filter="url(#fx0)" transform="translate(56 149)"><g clip-path="url(#clip31)"><path d="M13.3288 7.30591 13.3289 56.0792" stroke="#953547" stroke-width="13" stroke-miterlimit="8" fill="none" fill-rule="evenodd"/></g></g><path d="M66.5 153.477 66.5001 202.251" stroke="#953547" stroke-width="13.0019" stroke-miterlimit="8" fill="none" fill-rule="evenodd"/><g clip-path="url(#clip32)"><g clip-path="url(#clip33)" filter="url(#fx1)" transform="translate(13 36)"><g clip-path="url(#clip34)"><path d="M12.8289 56.3153C12.8289 32.2945 32.3045 12.8217 56.3289 12.8217 80.3532 12.8217 99.8288 32.2945 99.8288 56.3153 99.8288 80.3362 80.3532 99.8089 56.3289 99.8089 32.3045 99.8089 12.8289 80.3362 12.8289 56.3153Z" stroke="#953547" stroke-width="12" stroke-miterlimit="8" fill="#BFBFBF" fill-rule="evenodd"/></g></g></g><path d="M23 89.4869C23 65.466 42.4756 45.9933 66.5 45.9933 90.5244 45.9933 110 65.466 110 89.4869 110 113.508 90.5244 132.98 66.5 132.98 42.4756 132.98 23 113.508 23 89.4869Z" stroke="#953547" stroke-width="11.6684" stroke-miterlimit="8" fill="#BFBFBF" fill-rule="evenodd"/><g clip-path="url(#clip35)"><g clip-path="url(#clip36)" filter="url(#fx2)" transform="translate(13 212)"><g clip-path="url(#clip37)"><path d="M12.8289 56.2894C12.8289 32.2685 32.3045 12.7958 56.3289 12.7958 80.3532 12.7958 99.8288 32.2685 99.8288 56.2894 99.8288 80.3102 80.3532 99.783 56.3289 99.783 32.3045 99.783 12.8289 80.3102 12.8289 56.2894Z" stroke="#953547" stroke-width="12" stroke-miterlimit="8" fill="#BFBFBF" fill-rule="evenodd"/></g></g></g><path d="M23 265.461C23 241.44 42.4756 221.967 66.5 221.967 90.5244 221.967 110 241.44 110 265.461 110 289.482 90.5244 308.955 66.5 308.955 42.4756 308.955 23 289.482 23 265.461Z" stroke="#953547" stroke-width="11.6684" stroke-miterlimit="8" fill="#BFBFBF" fill-rule="evenodd"/><g clip-path="url(#clip38)" filter="url(#fx3)" transform="translate(56 324)"><g clip-path="url(#clip39)"><path d="M13.3288 7.28018 13.3289 56.0535" stroke="#953547" stroke-width="13" stroke-miterlimit="8" fill="none" fill-rule="evenodd"/></g></g><path d="M66.5 328.452 66.5001 377.225" stroke="#953547" stroke-width="13.0019" stroke-miterlimit="8" fill="none" fill-rule="evenodd"/><g clip-path="url(#clip40)"><g clip-path="url(#clip41)" filter="url(#fx4)" transform="translate(13 387)"><g clip-path="url(#clip42)"><path d="M12.8289 56.2636C12.8289 32.2428 32.3045 12.7701 56.3289 12.7701 80.3532 12.7701 99.8288 32.2428 99.8288 56.2636 99.8288 80.2845 80.3532 99.7572 56.3289 99.7572 32.3045 99.7572 12.8289 80.2845 12.8289 56.2636Z" stroke="#953547" stroke-width="12" stroke-miterlimit="8" fill="#BFBFBF" fill-rule="evenodd"/></g></g></g><path d="M23 440.435C23 416.414 42.4756 396.942 66.5 396.942 90.5244 396.942 110 416.414 110 440.435 110 464.456 90.5244 483.929 66.5 483.929 42.4756 483.929 23 464.456 23 440.435Z" stroke="#953547" stroke-width="11.6684" stroke-miterlimit="8" fill="#BFBFBF" fill-rule="evenodd"/><g clip-path="url(#clip43)"><g clip-path="url(#clip44)" filter="url(#fx5)" transform="translate(340 36)"><g clip-path="url(#clip45)"><path d="M12.8288 56.3153C12.8288 32.2945 32.3044 12.8217 56.3288 12.8217 80.3532 12.8217 99.8288 32.2945 99.8288 56.3153 99.8288 80.3362 80.3532 99.8089 56.3288 99.8089 32.3044 99.8089 12.8288 80.3362 12.8288 56.3153Z" stroke="#953547" stroke-width="12" stroke-miterlimit="8" fill="#BFBFBF" fill-rule="evenodd"/></g></g></g><path d="M350 89.4869C350 65.466 369.476 45.9933 393.5 45.9933 417.524 45.9933 437 65.466 437 89.4869 437 113.508 417.524 132.98 393.5 132.98 369.476 132.98 350 113.508 350 89.4869Z" stroke="#953547" stroke-width="11.6684" stroke-miterlimit="8" fill="#BFBFBF" fill-rule="evenodd"/><g clip-path="url(#clip46)" filter="url(#fx6)" transform="translate(322 143)"><g clip-path="url(#clip47)"><path d="M0 0 37.7847 55.0711" stroke="#953547" stroke-width="12.9981" stroke-miterlimit="8" fill="none" fill-rule="evenodd" transform="matrix(-1.00015 0 0 1 51.1191 10.3063)"/></g></g><path d="M0 0 37.7847 55.0711" stroke="#953547" stroke-width="13" stroke-miterlimit="8" fill="none" fill-rule="evenodd" transform="matrix(-1.00015 0 0 1 370.29 150.478)"/><g clip-path="url(#clip48)"><g clip-path="url(#clip49)" filter="url(#fx7)" transform="translate(256 212)"><g clip-path="url(#clip50)"><path d="M12.8289 56.2894C12.8289 32.2685 32.3045 12.7958 56.3289 12.7958 80.3533 12.7958 99.8289 32.2685 99.8289 56.2894 99.8289 80.3102 80.3533 99.783 56.3289 99.783 32.3045 99.783 12.8289 80.3102 12.8289 56.2894Z" stroke="#953547" stroke-width="12" stroke-miterlimit="8" fill="#BFBFBF" fill-rule="evenodd"/></g></g></g><path d="M266 265.461C266 241.44 285.476 221.967 309.5 221.967 333.524 221.967 353 241.44 353 265.461 353 289.482 333.524 308.955 309.5 308.955 285.476 308.955 266 289.482 266 265.461Z" stroke="#953547" stroke-width="11.6684" stroke-miterlimit="8" fill="#BFBFBF" fill-rule="evenodd"/><g clip-path="url(#clip51)" filter="url(#fx8)" transform="translate(418 143)"><g clip-path="url(#clip52)"><path d="M12.3288 10.3063 50.7487 65.3774" stroke="#953547" stroke-width="13" stroke-miterlimit="8" fill="none" fill-rule="evenodd"/></g></g><path d="M427.5 150.478 465.92 205.549" stroke="#953547" stroke-width="13.0019" stroke-miterlimit="8" fill="none" fill-rule="evenodd"/><g clip-path="url(#clip53)"><g clip-path="url(#clip54)" filter="url(#fx9)" transform="translate(437 212)"><g clip-path="url(#clip55)"><path d="M12.8288 56.2894C12.8288 32.2685 32.3044 12.7958 56.3288 12.7958 80.3532 12.7958 99.8288 32.2685 99.8288 56.2894 99.8288 80.3102 80.3532 99.783 56.3288 99.783 32.3044 99.783 12.8288 80.3102 12.8288 56.2894Z" stroke="#953547" stroke-width="12" stroke-miterlimit="8" fill="#BFBFBF" fill-rule="evenodd"/></g></g></g><path d="M447 265.461C447 241.44 466.476 221.967 490.5 221.967 514.524 221.967 534 241.44 534 265.461 534 289.482 514.524 308.955 490.5 308.955 466.476 308.955 447 289.482 447 265.461Z" stroke="#953547" stroke-width="11.6684" stroke-miterlimit="8" fill="#BFBFBF" fill-rule="evenodd"/><g clip-path="url(#clip56)" filter="url(#fx10)" transform="translate(420 321)"><g clip-path="url(#clip57)"><path d="M0 0 37.7847 55.0711" stroke="#953547" stroke-width="12.9981" stroke-miterlimit="8" fill="none" fill-rule="evenodd" transform="matrix(-1.00015 0 0 1 51.1191 10.2802)"/></g></g><path d="M0 0 37.7847 55.0711" stroke="#953547" stroke-width="13" stroke-miterlimit="8" fill="none" fill-rule="evenodd" transform="matrix(-1.00015 0 0 1 468.29 328.452)"/><g clip-path="url(#clip58)"><g clip-path="url(#clip59)" filter="url(#fx11)" transform="translate(359 391)"><g clip-path="url(#clip60)"><path d="M12.8288 56.2631C12.8288 32.2423 32.3044 12.7695 56.3288 12.7695 80.3532 12.7695 99.8289 32.2423 99.8289 56.2631 99.8289 80.284 80.3532 99.7567 56.3288 99.7567 32.3044 99.7567 12.8288 80.284 12.8288 56.2631Z" stroke="#953547" stroke-width="12" stroke-miterlimit="8" fill="#BFBFBF" fill-rule="evenodd"/></g></g></g><path d="M369 444.435C369 420.414 388.476 400.941 412.5 400.941 436.524 400.941 456 420.414 456 444.435 456 468.456 436.524 487.928 412.5 487.928 388.476 487.928 369 468.456 369 444.435Z" stroke="#953547" stroke-width="11.6684" stroke-miterlimit="8" fill="#BFBFBF" fill-rule="evenodd"/><g clip-path="url(#clip61)"><g clip-path="url(#clip62)" filter="url(#fx12)" transform="translate(518 391)"><g clip-path="url(#clip63)"><path d="M12.8289 56.2631C12.8289 32.2423 32.5283 12.7695 56.8289 12.7695 81.1294 12.7695 100.829 32.2423 100.829 56.2631 100.829 80.284 81.1294 99.7567 56.8289 99.7567 32.5283 99.7567 12.8289 80.284 12.8289 56.2631Z" stroke="#953547" stroke-width="12" stroke-miterlimit="8" fill="#BFBFBF" fill-rule="evenodd"/></g></g></g><path d="M528 444.435C528 420.414 547.699 400.941 572 400.941 596.301 400.941 616 420.414 616 444.435 616 468.456 596.301 487.928 572 487.928 547.699 487.928 528 468.456 528 444.435Z" stroke="#953547" stroke-width="11.6684" stroke-miterlimit="8" fill="#BFBFBF" fill-rule="evenodd"/><g clip-path="url(#clip64)" filter="url(#fx13)" transform="translate(505 321)"><g clip-path="url(#clip65)"><path d="M12.3288 10.2802 50.7487 65.3513" stroke="#953547" stroke-width="13" stroke-miterlimit="8" fill="none" fill-rule="evenodd"/></g></g><path d="M514.5 328.452 552.92 383.523" stroke="#953547" stroke-width="13.0019" stroke-miterlimit="8" fill="none" fill-rule="evenodd"/><g clip-path="url(#clip66)" filter="url(#fx14)" transform="translate(810 229)"><g clip-path="url(#clip67)"><path d="M13.3289 7.29414 13.329 38.3491" stroke="#953547" stroke-width="13" stroke-miterlimit="8" fill="none" fill-rule="evenodd"/></g></g><path d="M820.5 233.466 820.5 264.521" stroke="#953547" stroke-width="13.0019" stroke-miterlimit="8" fill="none" fill-rule="evenodd"/><g clip-path="url(#clip68)"><g clip-path="url(#clip69)" filter="url(#fx15)" transform="translate(906 36)"><g clip-path="url(#clip70)"><path d="M12.8289 56.3153C12.8289 32.2945 32.3045 12.8217 56.3288 12.8217 80.3532 12.8217 99.8288 32.2945 99.8288 56.3153 99.8288 80.3362 80.3532 99.8089 56.3288 99.8089 32.3045 99.8089 12.8289 80.3362 12.8289 56.3153Z" stroke="#953547" stroke-width="12" stroke-miterlimit="8" fill="#BFBFBF" fill-rule="evenodd"/></g></g></g><path d="M916 89.4869C916 65.466 935.476 45.9933 959.5 45.9933 983.524 45.9933 1003 65.466 1003 89.4869 1003 113.508 983.524 132.98 959.5 132.98 935.476 132.98 916 113.508 916 89.4869Z" stroke="#953547" stroke-width="11.6684" stroke-miterlimit="8" fill="#BFBFBF" fill-rule="evenodd"/><g clip-path="url(#clip71)" filter="url(#fx16)" transform="translate(859 112)"><g clip-path="url(#clip72)"><path d="M0 0 38.9086 28.084" stroke="#953547" stroke-width="12.9981" stroke-miterlimit="8" fill="none" fill-rule="evenodd" transform="matrix(-1.00015 0 0 1 52.2431 12.3105)"/></g></g><path d="M0 0 38.9086 28.084" stroke="#953547" stroke-width="13" stroke-miterlimit="8" fill="none" fill-rule="evenodd" transform="matrix(-1.00015 0 0 1 908.414 121.482)"/><g clip-path="url(#clip73)"><g clip-path="url(#clip74)" filter="url(#fx17)" transform="translate(762 122)"><g clip-path="url(#clip75)"><path d="M12.8288 56.8025C12.8288 32.5056 32.3044 12.809 56.3288 12.809 80.3532 12.809 99.8288 32.5056 99.8288 56.8025 99.8288 81.0995 80.3532 100.796 56.3288 100.796 32.3044 100.796 12.8288 81.0995 12.8288 56.8025Z" stroke="#953547" stroke-width="12" stroke-miterlimit="8" fill="#BFBFBF" fill-rule="evenodd"/></g></g></g><path d="M772 175.974C772 151.677 791.476 131.981 815.5 131.981 839.524 131.981 859 151.677 859 175.974 859 200.271 839.524 219.968 815.5 219.968 791.476 219.968 772 200.271 772 175.974Z" stroke="#953547" stroke-width="11.6684" stroke-miterlimit="8" fill="#BFBFBF" fill-rule="evenodd"/><g clip-path="url(#clip76)" filter="url(#fx18)" transform="translate(984 143)"><g clip-path="url(#clip77)"><path d="M12.3289 10.3063 50.7488 65.3774" stroke="#953547" stroke-width="13" stroke-miterlimit="8" fill="none" fill-rule="evenodd"/></g></g><path d="M993.5 150.478 1031.92 205.549" stroke="#953547" stroke-width="13.0019" stroke-miterlimit="8" fill="none" fill-rule="evenodd"/><g clip-path="url(#clip78)"><g clip-path="url(#clip79)" filter="url(#fx19)" transform="translate(1003 212)"><g clip-path="url(#clip80)"><path d="M12.8289 56.2894C12.8289 32.2685 32.3045 12.7958 56.3288 12.7958 80.3532 12.7958 99.8288 32.2685 99.8288 56.2894 99.8288 80.3102 80.3532 99.783 56.3288 99.783 32.3045 99.783 12.8289 80.3102 12.8289 56.2894Z" stroke="#953547" stroke-width="12" stroke-miterlimit="8" fill="#BFBFBF" fill-rule="evenodd"/></g></g></g><path d="M1013 265.461C1013 241.44 1032.48 221.967 1056.5 221.967 1080.52 221.967 1100 241.44 1100 265.461 1100 289.482 1080.52 308.955 1056.5 308.955 1032.48 308.955 1013 289.482 1013 265.461Z" stroke="#953547" stroke-width="11.6684" stroke-miterlimit="8" fill="#BFBFBF" fill-rule="evenodd"/><g clip-path="url(#clip81)" filter="url(#fx20)" transform="translate(982 321)"><g clip-path="url(#clip82)"><path d="M0 0 37.7847 55.0711" stroke="#953547" stroke-width="12.9981" stroke-miterlimit="8" fill="none" fill-rule="evenodd" transform="matrix(-1.00015 0 0 1 51.119 10.2802)"/></g></g><path d="M0 0 37.7847 55.0711" stroke="#953547" stroke-width="13" stroke-miterlimit="8" fill="none" fill-rule="evenodd" transform="matrix(-1.00015 0 0 1 1030.29 328.452)"/><g clip-path="url(#clip83)"><g clip-path="url(#clip84)" filter="url(#fx21)" transform="translate(917 391)"><g clip-path="url(#clip85)"><path d="M12.8288 56.2631C12.8288 32.2423 32.3044 12.7695 56.3288 12.7695 80.3532 12.7695 99.8288 32.2423 99.8288 56.2631 99.8288 80.284 80.3532 99.7567 56.3288 99.7567 32.3044 99.7567 12.8288 80.284 12.8288 56.2631Z" stroke="#953547" stroke-width="12" stroke-miterlimit="8" fill="#BFBFBF" fill-rule="evenodd"/></g></g></g><path d="M927 444.435C927 420.414 946.476 400.941 970.5 400.941 994.524 400.941 1014 420.414 1014 444.435 1014 468.456 994.524 487.928 970.5 487.928 946.476 487.928 927 468.456 927 444.435Z" stroke="#953547" stroke-width="11.6684" stroke-miterlimit="8" fill="#BFBFBF" fill-rule="evenodd"/><g clip-path="url(#clip86)" filter="url(#fx22)" transform="translate(867 191)"><g clip-path="url(#clip87)"><path d="M10.3288 12.299 123.638 76.5333" stroke="#953547" stroke-width="13" stroke-miterlimit="8" fill="none" fill-rule="evenodd"/></g></g><path d="M874.5 200.471 987.809 264.705" stroke="#953547" stroke-width="13.0019" stroke-miterlimit="8" fill="none" fill-rule="evenodd"/><g clip-path="url(#clip88)"><g clip-path="url(#clip89)" filter="url(#fx23)" transform="translate(783 267)"><g clip-path="url(#clip90)"><path d="M12.8289 56.2813C12.8289 32.2604 32.3045 12.7877 56.3288 12.7877 80.3532 12.7877 99.8288 32.2604 99.8288 56.2813 99.8288 80.3021 80.3532 99.7749 56.3288 99.7749 32.3045 99.7749 12.8289 80.3021 12.8289 56.2813Z" stroke="#953547" stroke-width="12" stroke-miterlimit="8" fill="#BFBFBF" fill-rule="evenodd"/></g></g></g><path d="M793 320.453C793 296.432 812.476 276.959 836.5 276.959 860.524 276.959 880 296.432 880 320.453 880 344.474 860.524 363.946 836.5 363.946 812.476 363.946 793 344.474 793 320.453Z" stroke="#953547" stroke-width="11.6684" stroke-miterlimit="8" fill="#BFBFBF" fill-rule="evenodd"/><g clip-path="url(#clip91)" filter="url(#fx24)" transform="translate(862 356)"><g clip-path="url(#clip92)"><path d="M11.3289 12.2747 62.7158 54.1741" stroke="#953547" stroke-width="13" stroke-miterlimit="8" fill="none" fill-rule="evenodd"/></g></g><path d="M870.5 365.446 921.887 407.346" stroke="#953547" stroke-width="13.0019" stroke-miterlimit="8" fill="none" fill-rule="evenodd"/><g clip-path="url(#clip93)" filter="url(#fx25)" transform="translate(897 286)"><g clip-path="url(#clip94)"><path d="M0 0 88.4623 20.9497" stroke="#953547" stroke-width="12.9981" stroke-miterlimit="8" fill="none" fill-rule="evenodd" transform="matrix(-1.00015 0 0 1 101.804 13.2848)"/></g></g><path d="M0 0 88.4623 20.9497" stroke="#953547" stroke-width="13" stroke-miterlimit="8" fill="none" fill-rule="evenodd" transform="matrix(-1.00015 0 0 1 995.975 296.456)"/><g clip-path="url(#clip95)" filter="url(#fx27)" transform="translate(-6 470)"><g clip-path="url(#clip96)"><g clip-path="url(#clip97)" filter="url(#fx26)" transform="translate(-6 6)"><g clip-path="url(#clip98)"><path d="M8.45508-83.751 39.3618-83.751C46.3315-83.751 51.6445-83.2178 55.3008-82.1514 60.2139-80.7041 64.4224-78.1333 67.9263-74.439 71.4302-70.7446 74.0962-66.2219 75.9243-60.8708 77.7524-55.5198 78.6665-48.9214 78.6665-41.0757 78.6665-34.1821 77.8096-28.2407 76.0957-23.2515 74.001-17.1577 71.0112-12.2256 67.1265-8.45508 64.1938-5.59863 60.2329-3.37061 55.2437-1.771 51.5112-0.590332 46.522 0 40.2759 0L8.45508 0ZM25.3652-69.583 25.3652-14.1108 37.9907-14.1108C42.7134-14.1108 46.1221-14.3774 48.2168-14.9106 50.959-15.5962 53.2346-16.7578 55.0437-18.3955 56.8528-20.0332 58.3286-22.7278 59.4712-26.4792 60.6138-30.2307 61.1851-35.3438 61.1851-41.8184 61.1851-48.293 60.6138-53.2632 59.4712-56.729 58.3286-60.1948 56.729-62.8989 54.6724-64.8413 52.6157-66.7837 50.0068-68.0977 46.8457-68.7832 44.4844-69.3164 39.8569-69.583 32.9634-69.583ZM168.716 0 150.32 0 143.008-19.0239 109.53-19.0239 102.618 0 84.6791 0 117.3-83.751 135.181-83.751ZM137.58-33.1348 126.04-64.2129 114.729-33.1348ZM188.015 0 188.015-69.583 163.164-69.583 163.164-83.751 229.719-83.751 229.719-69.583 204.925-69.583 204.925 0ZM307.656 0 289.261 0 281.948-19.0239 248.471-19.0239 241.558 0 223.62 0 256.24-83.751 274.121-83.751ZM276.521-33.1348 264.981-64.2129 253.669-33.1348ZM340.844-27.2505 357.297-28.8501C358.287-23.3276 360.296-19.2715 363.324-16.6816 366.352-14.0918 370.436-12.7969 375.578-12.7969 381.024-12.7969 385.128-13.949 387.889-16.2532 390.651-18.5574 392.031-21.252 392.031-24.3369 392.031-26.3174 391.45-28.0027 390.289-29.3928 389.127-30.783 387.099-31.9922 384.205-33.0205 382.224-33.7061 377.711-34.9248 370.665-36.6768 361.601-38.9238 355.24-41.6851 351.584-44.9604 346.442-49.5688 343.872-55.1865 343.872-61.8135 343.872-66.0791 345.081-70.0686 347.499-73.782 349.918-77.4954 353.403-80.3232 357.954-82.2656 362.505-84.208 367.999-85.1792 374.435-85.1792 384.947-85.1792 392.86-82.875 398.173-78.2666 403.486-73.6582 406.275-67.5073 406.542-59.814L389.632-59.0713C388.908-63.375 387.356-66.4695 384.976-68.3547 382.595-70.24 379.025-71.1826 374.264-71.1826 369.351-71.1826 365.504-70.1733 362.724-68.1548 360.934-66.8599 360.039-65.127 360.039-62.9561 360.039-60.9756 360.877-59.2808 362.553-57.8716 364.685-56.0815 369.865-54.2153 378.092-52.2729 386.318-50.3306 392.402-48.3215 396.344-46.2458 400.286-44.1702 403.371-41.3328 405.599-37.7336 407.827-34.1345 408.941-29.688 408.941-24.394 408.941-19.5952 407.608-15.1011 404.942-10.9116 402.276-6.72217 398.506-3.60864 393.631-1.57104 388.756 0.466553 382.681 1.48535 375.407 1.48535 364.819 1.48535 356.687-0.96167 351.013-5.85571 345.338-10.7498 341.948-17.8813 340.844-27.2505ZM442.326 0 442.326-69.583 417.475-69.583 417.475-83.751 484.03-83.751 484.03-69.583 459.236-69.583 459.236 0ZM495.208 0 495.208-83.751 530.799-83.751C539.749-83.751 546.252-82.9988 550.308-81.4944 554.365-79.99 557.611-77.3145 560.049-73.4678 562.486-69.6211 563.705-65.2222 563.705-60.271 563.705-53.9868 561.858-48.7976 558.164-44.7034 554.469-40.6091 548.947-38.0288 541.596-36.9624 545.252-34.8296 548.271-32.4873 550.651-29.9355 553.031-27.3838 556.24-22.8516 560.277-16.3389L570.503 0 550.28 0 538.054-18.2241C533.712-24.7368 530.742-28.8406 529.142-30.5354 527.542-32.2302 525.848-33.3918 524.058-34.0203 522.268-34.6487 519.43-34.9629 515.545-34.9629L512.118-34.9629 512.118 0ZM512.118-48.3311 524.629-48.3311C532.741-48.3311 537.807-48.6738 539.825-49.3594 541.844-50.0449 543.424-51.2256 544.567-52.9014 545.709-54.5771 546.281-56.6719 546.281-59.1855 546.281-62.0039 545.529-64.2795 544.024-66.0125 542.52-67.7454 540.396-68.8403 537.654-69.2974 536.283-69.4878 532.17-69.583 525.314-69.583L512.118-69.583ZM579.715-83.751 596.625-83.751 596.625-38.3906C596.625-31.1924 596.835-26.5269 597.254-24.394 597.977-20.9663 599.701-18.2146 602.424-16.1389 605.147-14.0632 608.87-13.0254 613.593-13.0254 618.392-13.0254 622.01-14.0061 624.447-15.9675 626.885-17.929 628.351-20.3379 628.846-23.1943 629.341-26.0508 629.589-30.7925 629.589-37.4194L629.589-83.751 646.499-83.751 646.499-39.7617C646.499-29.707 646.042-22.604 645.128-18.4526 644.214-14.3013 642.528-10.7974 640.072-7.94092 637.615-5.08447 634.331-2.80884 630.217-1.11401 626.104 0.58081 620.734 1.42822 614.107 1.42822 606.109 1.42822 600.044 0.504639 595.911-1.34253 591.779-3.1897 588.513-5.58911 586.114-8.54077 583.714-11.4924 582.134-14.5869 581.372-17.8242 580.268-22.623 579.715-29.707 579.715-39.0762ZM718.096-30.7925 734.492-25.5938C731.978-16.4531 727.798-9.66431 721.952-5.22729 716.106-0.790283 708.688 1.42822 699.7 1.42822 688.579 1.42822 679.438-2.37085 672.278-9.96899 665.118-17.5671 661.538-27.9551 661.538-41.1328 661.538-55.0723 665.137-65.8982 672.335-73.6106 679.534-81.323 688.998-85.1792 700.728-85.1792 710.974-85.1792 719.295-82.1514 725.694-76.0957 729.502-72.5156 732.359-67.374 734.263-60.6709L717.524-56.6719C716.534-61.0137 714.468-64.4414 711.326-66.9551 708.184-69.4688 704.366-70.7256 699.871-70.7256 693.663-70.7256 688.627-68.4976 684.761-64.0415 680.895-59.5854 678.962-52.3682 678.962-42.3896 678.962-31.8018 680.867-24.2607 684.675-19.7666 688.484-15.2725 693.435-13.0254 699.529-13.0254 704.023-13.0254 707.889-14.4536 711.126-17.3101 714.363-20.1665 716.686-24.6606 718.096-30.7925ZM768.04 0 768.04-69.583 743.189-69.583 743.189-83.751 809.744-83.751 809.744-69.583 784.951-69.583 784.951 0ZM820.751-83.751 837.661-83.751 837.661-38.3906C837.661-31.1924 837.87-26.5269 838.289-24.394 839.013-20.9663 840.736-18.2146 843.459-16.1389 846.183-14.0632 849.906-13.0254 854.628-13.0254 859.427-13.0254 863.045-14.0061 865.483-15.9675 867.92-17.929 869.386-20.3379 869.882-23.1943 870.377-26.0508 870.624-30.7925 870.624-37.4194L870.624-83.751 887.534-83.751 887.534-39.7617C887.534-29.707 887.077-22.604 886.163-18.4526 885.249-14.3013 883.564-10.7974 881.107-7.94092 878.651-5.08447 875.366-2.80884 871.253-1.11401 867.139 0.58081 861.769 1.42822 855.142 1.42822 847.144 1.42822 841.079 0.504639 836.947-1.34253 832.814-3.1897 829.549-5.58911 827.149-8.54077 824.75-11.4924 823.169-14.5869 822.407-17.8242 821.303-22.623 820.751-29.707 820.751-39.0762ZM905.601 0 905.601-83.751 941.193-83.751C950.143-83.751 956.646-82.9988 960.702-81.4944 964.758-79.99 968.005-77.3145 970.443-73.4678 972.88-69.6211 974.099-65.2222 974.099-60.271 974.099-53.9868 972.252-48.7976 968.557-44.7034 964.863-40.6091 959.34-38.0288 951.99-36.9624 955.646-34.8296 958.664-32.4873 961.045-29.9355 963.425-27.3838 966.634-22.8516 970.671-16.3389L980.897 0 960.674 0 948.448-18.2241C944.106-24.7368 941.135-28.8406 939.536-30.5354 937.936-32.2302 936.241-33.3918 934.451-34.0203 932.661-34.6487 929.824-34.9629 925.939-34.9629L922.511-34.9629 922.511 0ZM922.511-48.3311 935.023-48.3311C943.135-48.3311 948.2-48.6738 950.219-49.3594 952.237-50.0449 953.818-51.2256 954.961-52.9014 956.103-54.5771 956.674-56.6719 956.674-59.1855 956.674-62.0039 955.922-64.2795 954.418-66.0125 952.913-67.7454 950.79-68.8403 948.048-69.2974 946.677-69.4878 942.564-69.583 935.708-69.583L922.511-69.583ZM990.223 0 990.223-83.751 1052.32-83.751 1052.32-69.583 1007.13-69.583 1007.13-51.0161 1049.18-51.0161 1049.18-36.9053 1007.13-36.9053 1007.13-14.1108 1053.92-14.1108 1053.92 0ZM1064.28-27.2505 1080.74-28.8501C1081.73-23.3276 1083.74-19.2715 1086.76-16.6816 1089.79-14.0918 1093.88-12.7969 1099.02-12.7969 1104.46-12.7969 1108.57-13.949 1111.33-16.2532 1114.09-18.5574 1115.47-21.252 1115.47-24.3369 1115.47-26.3174 1114.89-28.0027 1113.73-29.3928 1112.57-30.783 1110.54-31.9922 1107.64-33.0205 1105.66-33.7061 1101.15-34.9248 1094.1-36.6768 1085.04-38.9238 1078.68-41.6851 1075.02-44.9604 1069.88-49.5688 1067.31-55.1865 1067.31-61.8135 1067.31-66.0791 1068.52-70.0686 1070.94-73.782 1073.36-77.4954 1076.84-80.3232 1081.39-82.2656 1085.94-84.208 1091.44-85.1792 1097.88-85.1792 1108.39-85.1792 1116.3-82.875 1121.61-78.2666 1126.93-73.6582 1129.72-67.5073 1129.98-59.814L1113.07-59.0713C1112.35-63.375 1110.8-66.4695 1108.42-68.3547 1106.04-70.24 1102.46-71.1826 1097.7-71.1826 1092.79-71.1826 1088.94-70.1733 1086.16-68.1548 1084.37-66.8599 1083.48-65.127 1083.48-62.9561 1083.48-60.9756 1084.32-59.2808 1085.99-57.8716 1088.13-56.0815 1093.3-54.2153 1101.53-52.2729 1109.76-50.3306 1115.84-48.3215 1119.78-46.2458 1123.73-44.1702 1126.81-41.3328 1129.04-37.7336 1131.27-34.1345 1132.38-29.688 1132.38-24.394 1132.38-19.5952 1131.05-15.1011 1128.38-10.9116 1125.72-6.72217 1121.95-3.60864 1117.07-1.57104 1112.2 0.466553 1106.12 1.48535 1098.85 1.48535 1088.26 1.48535 1080.13-0.96167 1074.45-5.85571 1068.78-10.7498 1065.39-17.8813 1064.28-27.2505Z" fill="#953547" transform="matrix(1 0 0 0.999853 19.4668 -314)"/></g></g><path d="M8.45508-83.751 39.3618-83.751C46.3315-83.751 51.6445-83.2178 55.3008-82.1514 60.2139-80.7041 64.4224-78.1333 67.9263-74.439 71.4302-70.7446 74.0962-66.2219 75.9243-60.8708 77.7524-55.5198 78.6665-48.9214 78.6665-41.0757 78.6665-34.1821 77.8096-28.2407 76.0957-23.2515 74.001-17.1577 71.0112-12.2256 67.1265-8.45508 64.1938-5.59863 60.2329-3.37061 55.2437-1.771 51.5112-0.590332 46.522 0 40.2759 0L8.45508 0ZM25.3652-69.583 25.3652-14.1108 37.9907-14.1108C42.7134-14.1108 46.1221-14.3774 48.2168-14.9106 50.959-15.5962 53.2346-16.7578 55.0437-18.3955 56.8528-20.0332 58.3286-22.7278 59.4712-26.4792 60.6138-30.2307 61.1851-35.3438 61.1851-41.8184 61.1851-48.293 60.6138-53.2632 59.4712-56.729 58.3286-60.1948 56.729-62.8989 54.6724-64.8413 52.6157-66.7837 50.0068-68.0977 46.8457-68.7832 44.4844-69.3164 39.8569-69.583 32.9634-69.583ZM168.716 0 150.32 0 143.008-19.0239 109.53-19.0239 102.618 0 84.6791 0 117.3-83.751 135.181-83.751ZM137.58-33.1348 126.04-64.2129 114.729-33.1348ZM188.015 0 188.015-69.583 163.164-69.583 163.164-83.751 229.719-83.751 229.719-69.583 204.925-69.583 204.925 0ZM307.656 0 289.261 0 281.948-19.0239 248.471-19.0239 241.558 0 223.62 0 256.24-83.751 274.121-83.751ZM276.521-33.1348 264.981-64.2129 253.669-33.1348ZM340.844-27.2505 357.297-28.8501C358.287-23.3276 360.296-19.2715 363.324-16.6816 366.352-14.0918 370.436-12.7969 375.578-12.7969 381.024-12.7969 385.128-13.949 387.889-16.2532 390.651-18.5574 392.031-21.252 392.031-24.3369 392.031-26.3174 391.45-28.0027 390.289-29.3928 389.127-30.783 387.099-31.9922 384.205-33.0205 382.224-33.7061 377.711-34.9248 370.665-36.6768 361.601-38.9238 355.24-41.6851 351.584-44.9604 346.442-49.5688 343.872-55.1865 343.872-61.8135 343.872-66.0791 345.081-70.0686 347.499-73.782 349.918-77.4954 353.403-80.3232 357.954-82.2656 362.505-84.208 367.999-85.1792 374.435-85.1792 384.947-85.1792 392.86-82.875 398.173-78.2666 403.486-73.6582 406.275-67.5073 406.542-59.814L389.632-59.0713C388.908-63.375 387.356-66.4695 384.976-68.3547 382.595-70.24 379.025-71.1826 374.264-71.1826 369.351-71.1826 365.504-70.1733 362.724-68.1548 360.934-66.8599 360.039-65.127 360.039-62.9561 360.039-60.9756 360.877-59.2808 362.553-57.8716 364.685-56.0815 369.865-54.2153 378.092-52.2729 386.318-50.3306 392.402-48.3215 396.344-46.2458 400.286-44.1702 403.371-41.3328 405.599-37.7336 407.827-34.1345 408.941-29.688 408.941-24.394 408.941-19.5952 407.608-15.1011 404.942-10.9116 402.276-6.72217 398.506-3.60864 393.631-1.57104 388.756 0.466553 382.681 1.48535 375.407 1.48535 364.819 1.48535 356.687-0.96167 351.013-5.85571 345.338-10.7498 341.948-17.8813 340.844-27.2505ZM442.326 0 442.326-69.583 417.475-69.583 417.475-83.751 484.03-83.751 484.03-69.583 459.236-69.583 459.236 0ZM495.208 0 495.208-83.751 530.799-83.751C539.749-83.751 546.252-82.9988 550.308-81.4944 554.365-79.99 557.611-77.3145 560.049-73.4678 562.486-69.6211 563.705-65.2222 563.705-60.271 563.705-53.9868 561.858-48.7976 558.164-44.7034 554.469-40.6091 548.947-38.0288 541.596-36.9624 545.252-34.8296 548.271-32.4873 550.651-29.9355 553.031-27.3838 556.24-22.8516 560.277-16.3389L570.503 0 550.28 0 538.054-18.2241C533.712-24.7368 530.742-28.8406 529.142-30.5354 527.542-32.2302 525.848-33.3918 524.058-34.0203 522.268-34.6487 519.43-34.9629 515.545-34.9629L512.118-34.9629 512.118 0ZM512.118-48.3311 524.629-48.3311C532.741-48.3311 537.807-48.6738 539.825-49.3594 541.844-50.0449 543.424-51.2256 544.567-52.9014 545.709-54.5771 546.281-56.6719 546.281-59.1855 546.281-62.0039 545.529-64.2795 544.024-66.0125 542.52-67.7454 540.396-68.8403 537.654-69.2974 536.283-69.4878 532.17-69.583 525.314-69.583L512.118-69.583ZM579.715-83.751 596.625-83.751 596.625-38.3906C596.625-31.1924 596.835-26.5269 597.254-24.394 597.977-20.9663 599.701-18.2146 602.424-16.1389 605.147-14.0632 608.87-13.0254 613.593-13.0254 618.392-13.0254 622.01-14.0061 624.447-15.9675 626.885-17.929 628.351-20.3379 628.846-23.1943 629.341-26.0508 629.589-30.7925 629.589-37.4194L629.589-83.751 646.499-83.751 646.499-39.7617C646.499-29.707 646.042-22.604 645.128-18.4526 644.214-14.3013 642.528-10.7974 640.072-7.94092 637.615-5.08447 634.331-2.80884 630.217-1.11401 626.104 0.58081 620.734 1.42822 614.107 1.42822 606.109 1.42822 600.044 0.504639 595.911-1.34253 591.779-3.1897 588.513-5.58911 586.114-8.54077 583.714-11.4924 582.134-14.5869 581.372-17.8242 580.268-22.623 579.715-29.707 579.715-39.0762ZM718.096-30.7925 734.492-25.5938C731.978-16.4531 727.798-9.66431 721.952-5.22729 716.106-0.790283 708.688 1.42822 699.7 1.42822 688.579 1.42822 679.438-2.37085 672.278-9.96899 665.118-17.5671 661.538-27.9551 661.538-41.1328 661.538-55.0723 665.137-65.8982 672.335-73.6106 679.534-81.323 688.998-85.1792 700.728-85.1792 710.974-85.1792 719.295-82.1514 725.694-76.0957 729.502-72.5156 732.359-67.374 734.263-60.6709L717.524-56.6719C716.534-61.0137 714.468-64.4414 711.326-66.9551 708.184-69.4688 704.366-70.7256 699.871-70.7256 693.663-70.7256 688.627-68.4976 684.761-64.0415 680.895-59.5854 678.962-52.3682 678.962-42.3896 678.962-31.8018 680.867-24.2607 684.675-19.7666 688.484-15.2725 693.435-13.0254 699.529-13.0254 704.023-13.0254 707.889-14.4536 711.126-17.3101 714.363-20.1665 716.686-24.6606 718.096-30.7925ZM768.04 0 768.04-69.583 743.189-69.583 743.189-83.751 809.744-83.751 809.744-69.583 784.951-69.583 784.951 0ZM820.751-83.751 837.661-83.751 837.661-38.3906C837.661-31.1924 837.87-26.5269 838.289-24.394 839.013-20.9663 840.736-18.2146 843.459-16.1389 846.183-14.0632 849.906-13.0254 854.628-13.0254 859.427-13.0254 863.045-14.0061 865.483-15.9675 867.92-17.929 869.386-20.3379 869.882-23.1943 870.377-26.0508 870.624-30.7925 870.624-37.4194L870.624-83.751 887.534-83.751 887.534-39.7617C887.534-29.707 887.077-22.604 886.163-18.4526 885.249-14.3013 883.564-10.7974 881.107-7.94092 878.651-5.08447 875.366-2.80884 871.253-1.11401 867.139 0.58081 861.769 1.42822 855.142 1.42822 847.144 1.42822 841.079 0.504639 836.947-1.34253 832.814-3.1897 829.549-5.58911 827.149-8.54077 824.75-11.4924 823.169-14.5869 822.407-17.8242 821.303-22.623 820.751-29.707 820.751-39.0762ZM905.601 0 905.601-83.751 941.193-83.751C950.143-83.751 956.646-82.9988 960.702-81.4944 964.758-79.99 968.005-77.3145 970.443-73.4678 972.88-69.6211 974.099-65.2222 974.099-60.271 974.099-53.9868 972.252-48.7976 968.557-44.7034 964.863-40.6091 959.34-38.0288 951.99-36.9624 955.646-34.8296 958.664-32.4873 961.045-29.9355 963.425-27.3838 966.634-22.8516 970.671-16.3389L980.897 0 960.674 0 948.448-18.2241C944.106-24.7368 941.135-28.8406 939.536-30.5354 937.936-32.2302 936.241-33.3918 934.451-34.0203 932.661-34.6487 929.824-34.9629 925.939-34.9629L922.511-34.9629 922.511 0ZM922.511-48.3311 935.023-48.3311C943.135-48.3311 948.2-48.6738 950.219-49.3594 952.237-50.0449 953.818-51.2256 954.961-52.9014 956.103-54.5771 956.674-56.6719 956.674-59.1855 956.674-62.0039 955.922-64.2795 954.418-66.0125 952.913-67.7454 950.79-68.8403 948.048-69.2974 946.677-69.4878 942.564-69.583 935.708-69.583L922.511-69.583ZM990.223 0 990.223-83.751 1052.32-83.751 1052.32-69.583 1007.13-69.583 1007.13-51.0161 1049.18-51.0161 1049.18-36.9053 1007.13-36.9053 1007.13-14.1108 1053.92-14.1108 1053.92 0ZM1064.28-27.2505 1080.74-28.8501C1081.73-23.3276 1083.74-19.2715 1086.76-16.6816 1089.79-14.0918 1093.88-12.7969 1099.02-12.7969 1104.46-12.7969 1108.57-13.949 1111.33-16.2532 1114.09-18.5574 1115.47-21.252 1115.47-24.3369 1115.47-26.3174 1114.89-28.0027 1113.73-29.3928 1112.57-30.783 1110.54-31.9922 1107.64-33.0205 1105.66-33.7061 1101.15-34.9248 1094.1-36.6768 1085.04-38.9238 1078.68-41.6851 1075.02-44.9604 1069.88-49.5688 1067.31-55.1865 1067.31-61.8135 1067.31-66.0791 1068.52-70.0686 1070.94-73.782 1073.36-77.4954 1076.84-80.3232 1081.39-82.2656 1085.94-84.208 1091.44-85.1792 1097.88-85.1792 1108.39-85.1792 1116.3-82.875 1121.61-78.2666 1126.93-73.6582 1129.72-67.5073 1129.98-59.814L1113.07-59.0713C1112.35-63.375 1110.8-66.4695 1108.42-68.3547 1106.04-70.24 1102.46-71.1826 1097.7-71.1826 1092.79-71.1826 1088.94-70.1733 1086.16-68.1548 1084.37-66.8599 1083.48-65.127 1083.48-62.9561 1083.48-60.9756 1084.32-59.2808 1085.99-57.8716 1088.13-56.0815 1093.3-54.2153 1101.53-52.2729 1109.76-50.3306 1115.84-48.3215 1119.78-46.2458 1123.73-44.1702 1126.81-41.3328 1129.04-37.7336 1131.27-34.1345 1132.38-29.688 1132.38-24.394 1132.38-19.5952 1131.05-15.1011 1128.38-10.9116 1125.72-6.72217 1121.95-3.60864 1117.07-1.57104 1112.2 0.466553 1106.12 1.48535 1098.85 1.48535 1088.26 1.48535 1080.13-0.96167 1074.45-5.85571 1068.78-10.7498 1065.39-17.8813 1064.28-27.2505Z" fill="#953547" transform="matrix(1 0 0 0.999853 4.31668 165)"/></g></g><g clip-path="url(#clip99)" filter="url(#fx28)" transform="translate(-6 473)"><g clip-path="url(#clip100)"><path d="M8.45508-83.751 39.3618-83.751C46.3315-83.751 51.6445-83.2178 55.3008-82.1514 60.2139-80.7041 64.4224-78.1333 67.9263-74.439 71.4302-70.7446 74.0962-66.2219 75.9243-60.8708 77.7524-55.5198 78.6665-48.9214 78.6665-41.0757 78.6665-34.1821 77.8096-28.2407 76.0957-23.2515 74.001-17.1577 71.0112-12.2256 67.1265-8.45508 64.1938-5.59863 60.2329-3.37061 55.2437-1.771 51.5112-0.590332 46.522 0 40.2759 0L8.45508 0ZM25.3652-69.583 25.3652-14.1108 37.9907-14.1108C42.7134-14.1108 46.1221-14.3774 48.2168-14.9106 50.959-15.5962 53.2346-16.7578 55.0437-18.3955 56.8528-20.0332 58.3286-22.7278 59.4712-26.4792 60.6138-30.2307 61.1851-35.3438 61.1851-41.8184 61.1851-48.293 60.6138-53.2632 59.4712-56.729 58.3286-60.1948 56.729-62.8989 54.6724-64.8413 52.6157-66.7837 50.0068-68.0977 46.8457-68.7832 44.4844-69.3164 39.8569-69.583 32.9634-69.583ZM168.716 0 150.32 0 143.008-19.0239 109.53-19.0239 102.618 0 84.6791 0 117.3-83.751 135.181-83.751ZM137.58-33.1348 126.04-64.2129 114.729-33.1348ZM188.015 0 188.015-69.583 163.164-69.583 163.164-83.751 229.719-83.751 229.719-69.583 204.925-69.583 204.925 0ZM307.656 0 289.261 0 281.948-19.0239 248.471-19.0239 241.558 0 223.62 0 256.24-83.751 274.121-83.751ZM276.521-33.1348 264.981-64.2129 253.669-33.1348ZM340.844-27.2505 357.297-28.8501C358.287-23.3276 360.296-19.2715 363.324-16.6816 366.352-14.0918 370.436-12.7969 375.578-12.7969 381.024-12.7969 385.128-13.949 387.889-16.2532 390.651-18.5574 392.031-21.252 392.031-24.3369 392.031-26.3174 391.45-28.0027 390.289-29.3928 389.127-30.783 387.099-31.9922 384.205-33.0205 382.224-33.7061 377.711-34.9248 370.665-36.6768 361.601-38.9238 355.24-41.6851 351.584-44.9604 346.442-49.5688 343.872-55.1865 343.872-61.8135 343.872-66.0791 345.081-70.0686 347.499-73.782 349.918-77.4954 353.403-80.3232 357.954-82.2656 362.505-84.208 367.999-85.1792 374.435-85.1792 384.947-85.1792 392.86-82.875 398.173-78.2666 403.486-73.6582 406.275-67.5073 406.542-59.814L389.632-59.0713C388.908-63.375 387.356-66.4695 384.976-68.3547 382.595-70.24 379.025-71.1826 374.264-71.1826 369.351-71.1826 365.504-70.1733 362.724-68.1548 360.934-66.8599 360.039-65.127 360.039-62.9561 360.039-60.9756 360.877-59.2808 362.553-57.8716 364.685-56.0815 369.865-54.2153 378.092-52.2729 386.318-50.3306 392.402-48.3215 396.344-46.2458 400.286-44.1702 403.371-41.3328 405.599-37.7336 407.827-34.1345 408.941-29.688 408.941-24.394 408.941-19.5952 407.608-15.1011 404.942-10.9116 402.276-6.72217 398.506-3.60864 393.631-1.57104 388.756 0.466553 382.681 1.48535 375.407 1.48535 364.819 1.48535 356.687-0.96167 351.013-5.85571 345.338-10.7498 341.948-17.8813 340.844-27.2505ZM442.326 0 442.326-69.583 417.475-69.583 417.475-83.751 484.03-83.751 484.03-69.583 459.236-69.583 459.236 0ZM495.208 0 495.208-83.751 530.799-83.751C539.749-83.751 546.252-82.9988 550.308-81.4944 554.365-79.99 557.611-77.3145 560.049-73.4678 562.486-69.6211 563.705-65.2222 563.705-60.271 563.705-53.9868 561.858-48.7976 558.164-44.7034 554.469-40.6091 548.947-38.0288 541.596-36.9624 545.252-34.8296 548.271-32.4873 550.651-29.9355 553.031-27.3838 556.24-22.8516 560.277-16.3389L570.503 0 550.28 0 538.054-18.2241C533.712-24.7368 530.742-28.8406 529.142-30.5354 527.542-32.2302 525.848-33.3918 524.058-34.0203 522.268-34.6487 519.43-34.9629 515.545-34.9629L512.118-34.9629 512.118 0ZM512.118-48.3311 524.629-48.3311C532.741-48.3311 537.807-48.6738 539.825-49.3594 541.844-50.0449 543.424-51.2256 544.567-52.9014 545.709-54.5771 546.281-56.6719 546.281-59.1855 546.281-62.0039 545.529-64.2795 544.024-66.0125 542.52-67.7454 540.396-68.8403 537.654-69.2974 536.283-69.4878 532.17-69.583 525.314-69.583L512.118-69.583ZM579.715-83.751 596.625-83.751 596.625-38.3906C596.625-31.1924 596.835-26.5269 597.254-24.394 597.977-20.9663 599.701-18.2146 602.424-16.1389 605.147-14.0632 608.87-13.0254 613.593-13.0254 618.392-13.0254 622.01-14.0061 624.447-15.9675 626.885-17.929 628.351-20.3379 628.846-23.1943 629.341-26.0508 629.589-30.7925 629.589-37.4194L629.589-83.751 646.499-83.751 646.499-39.7617C646.499-29.707 646.042-22.604 645.128-18.4526 644.214-14.3013 642.528-10.7974 640.072-7.94092 637.615-5.08447 634.331-2.80884 630.217-1.11401 626.104 0.58081 620.734 1.42822 614.107 1.42822 606.109 1.42822 600.044 0.504639 595.911-1.34253 591.779-3.1897 588.513-5.58911 586.114-8.54077 583.714-11.4924 582.134-14.5869 581.372-17.8242 580.268-22.623 579.715-29.707 579.715-39.0762ZM718.096-30.7925 734.492-25.5938C731.978-16.4531 727.798-9.66431 721.952-5.22729 716.106-0.790283 708.688 1.42822 699.7 1.42822 688.579 1.42822 679.438-2.37085 672.278-9.96899 665.118-17.5671 661.538-27.9551 661.538-41.1328 661.538-55.0723 665.137-65.8982 672.335-73.6106 679.534-81.323 688.998-85.1792 700.728-85.1792 710.974-85.1792 719.295-82.1514 725.694-76.0957 729.502-72.5156 732.359-67.374 734.263-60.6709L717.524-56.6719C716.534-61.0137 714.468-64.4414 711.326-66.9551 708.184-69.4688 704.366-70.7256 699.871-70.7256 693.663-70.7256 688.627-68.4976 684.761-64.0415 680.895-59.5854 678.962-52.3682 678.962-42.3896 678.962-31.8018 680.867-24.2607 684.675-19.7666 688.484-15.2725 693.435-13.0254 699.529-13.0254 704.023-13.0254 707.889-14.4536 711.126-17.3101 714.363-20.1665 716.686-24.6606 718.096-30.7925ZM768.04 0 768.04-69.583 743.189-69.583 743.189-83.751 809.744-83.751 809.744-69.583 784.951-69.583 784.951 0ZM820.751-83.751 837.661-83.751 837.661-38.3906C837.661-31.1924 837.87-26.5269 838.289-24.394 839.013-20.9663 840.736-18.2146 843.459-16.1389 846.183-14.0632 849.906-13.0254 854.628-13.0254 859.427-13.0254 863.045-14.0061 865.483-15.9675 867.92-17.929 869.386-20.3379 869.882-23.1943 870.377-26.0508 870.624-30.7925 870.624-37.4194L870.624-83.751 887.534-83.751 887.534-39.7617C887.534-29.707 887.077-22.604 886.163-18.4526 885.249-14.3013 883.564-10.7974 881.107-7.94092 878.651-5.08447 875.366-2.80884 871.253-1.11401 867.139 0.58081 861.769 1.42822 855.142 1.42822 847.144 1.42822 841.079 0.504639 836.947-1.34253 832.814-3.1897 829.549-5.58911 827.149-8.54077 824.75-11.4924 823.169-14.5869 822.407-17.8242 821.303-22.623 820.751-29.707 820.751-39.0762ZM905.601 0 905.601-83.751 941.193-83.751C950.143-83.751 956.646-82.9988 960.702-81.4944 964.758-79.99 968.005-77.3145 970.443-73.4678 972.88-69.6211 974.099-65.2222 974.099-60.271 974.099-53.9868 972.252-48.7976 968.557-44.7034 964.863-40.6091 959.34-38.0288 951.99-36.9624 955.646-34.8296 958.664-32.4873 961.045-29.9355 963.425-27.3838 966.634-22.8516 970.671-16.3389L980.897 0 960.674 0 948.448-18.2241C944.106-24.7368 941.135-28.8406 939.536-30.5354 937.936-32.2302 936.241-33.3918 934.451-34.0203 932.661-34.6487 929.824-34.9629 925.939-34.9629L922.511-34.9629 922.511 0ZM922.511-48.3311 935.023-48.3311C943.135-48.3311 948.2-48.6738 950.219-49.3594 952.237-50.0449 953.818-51.2256 954.961-52.9014 956.103-54.5771 956.674-56.6719 956.674-59.1855 956.674-62.0039 955.922-64.2795 954.418-66.0125 952.913-67.7454 950.79-68.8403 948.048-69.2974 946.677-69.4878 942.564-69.583 935.708-69.583L922.511-69.583ZM990.223 0 990.223-83.751 1052.32-83.751 1052.32-69.583 1007.13-69.583 1007.13-51.0161 1049.18-51.0161 1049.18-36.9053 1007.13-36.9053 1007.13-14.1108 1053.92-14.1108 1053.92 0ZM1064.28-27.2505 1080.74-28.8501C1081.73-23.3276 1083.74-19.2715 1086.76-16.6816 1089.79-14.0918 1093.88-12.7969 1099.02-12.7969 1104.46-12.7969 1108.57-13.949 1111.33-16.2532 1114.09-18.5574 1115.47-21.252 1115.47-24.3369 1115.47-26.3174 1114.89-28.0027 1113.73-29.3928 1112.57-30.783 1110.54-31.9922 1107.64-33.0205 1105.66-33.7061 1101.15-34.9248 1094.1-36.6768 1085.04-38.9238 1078.68-41.6851 1075.02-44.9604 1069.88-49.5688 1067.31-55.1865 1067.31-61.8135 1067.31-66.0791 1068.52-70.0686 1070.94-73.782 1073.36-77.4954 1076.84-80.3232 1081.39-82.2656 1085.94-84.208 1091.44-85.1792 1097.88-85.1792 1108.39-85.1792 1116.3-82.875 1121.61-78.2666 1126.93-73.6582 1129.72-67.5073 1129.98-59.814L1113.07-59.0713C1112.35-63.375 1110.8-66.4695 1108.42-68.3547 1106.04-70.24 1102.46-71.1826 1097.7-71.1826 1092.79-71.1826 1088.94-70.1733 1086.16-68.1548 1084.37-66.8599 1083.48-65.127 1083.48-62.9561 1083.48-60.9756 1084.32-59.2808 1085.99-57.8716 1088.13-56.0815 1093.3-54.2153 1101.53-52.2729 1109.76-50.3306 1115.84-48.3215 1119.78-46.2458 1123.73-44.1702 1126.81-41.3328 1129.04-37.7336 1131.27-34.1345 1132.38-29.688 1132.38-24.394 1132.38-19.5952 1131.05-15.1011 1128.38-10.9116 1125.72-6.72217 1121.95-3.60864 1117.07-1.57104 1112.2 0.466553 1106.12 1.48535 1098.85 1.48535 1088.26 1.48535 1080.13-0.96167 1074.45-5.85571 1068.78-10.7498 1065.39-17.8813 1064.28-27.2505Z" fill="#953547" transform="matrix(1 0 0 0.999853 4.63791 156)"/></g></g><text fill="#953547" font-family="Arial,Arial_MSFontService,sans-serif" font-weight="700" font-size="117" transform="matrix(1 0 0 0.999853 -4.51216 632)">DATA STRUCTURES</text></g></svg>